REM DIRINDEX 1\2\6,1\2\7,1\2\8,1\2\9,1\3\10,1\3\11,1\4\12,1\4\13,1\4\14,1\5\15,1\5\16,1\5\17
REM DIRNAME folder01,folder02,folder03,folder04,folder05,folder06,folder07,folder08,folder09,folder10,folder11,folder12,folder13,folder14,folder15,folder16,folder17
TITLE ""
FILE "1400_3_sec14_1301_1315.mp3" MP3
  TRACK 01 AUDIO
    TITLE "0:"
    INDEX 01 00:00:00
  TRACK 02 AUDIO
    TITLE "15:cjc029_7042"
    INDEX 01 00:00:15
  TRACK 03 AUDIO
    TITLE "0:"
    INDEX 01 00:02:24
  TRACK 04 AUDIO
    TITLE "17:cjc029_7043"
    INDEX 01 00:03:27
  TRACK 05 AUDIO
    TITLE "0:"
    INDEX 01 00:04:19
  TRACK 06 AUDIO
    TITLE "16:cjc029_7044"
    INDEX 01 00:04:23
  TRACK 07 AUDIO
    TITLE "0:"
    INDEX 01 00:05:54
  TRACK 08 AUDIO
    TITLE "17:cjc029_7045"
    INDEX 01 00:06:41
  TRACK 09 AUDIO
    TITLE "0:"
    INDEX 01 00:08:66
  TRACK 10 AUDIO
    TITLE "16:cjc029_7046"
    INDEX 01 00:08:70
  TRACK 11 AUDIO
    TITLE "0:"
    INDEX 01 00:10:00
  TRACK 12 AUDIO
    TITLE "17:cjc029_7047"
    INDEX 01 00:10:59
  TRACK 13 AUDIO
    TITLE "0:"
    INDEX 01 00:12:03
  TRACK 14 AUDIO
    TITLE "16:cjc029_7048"
    INDEX 01 00:12:12
  TRACK 15 AUDIO
    TITLE "0:"
    INDEX 01 00:13:24
  TRACK 16 AUDIO
    TITLE "17:cjc029_7049"
    INDEX 01 00:14:07
  TRACK 17 AUDIO
    TITLE "0:"
    INDEX 01 00:15:09
  TRACK 18 AUDIO
    TITLE "16:cjc029_7050"
    INDEX 01 00:15:17
  TRACK 19 AUDIO
    TITLE "0:"
    INDEX 01 00:16:22
  TRACK 20 AUDIO
    TITLE "17:cjc029_7051"
    INDEX 01 00:17:08
  TRACK 21 AUDIO
    TITLE "0:"
    INDEX 01 00:18:09
  TRACK 22 AUDIO
    TITLE "16:cjc029_7052"
    INDEX 01 00:18:15
  TRACK 23 AUDIO
    TITLE "0:"
    INDEX 01 00:19:30
  TRACK 24 AUDIO
    TITLE "17:cjc029_7053"
    INDEX 01 00:20:14
  TRACK 25 AUDIO
    TITLE "0:"
    INDEX 01 00:21:55
  TRACK 26 AUDIO
    TITLE "16:cjc029_7054"
    INDEX 01 00:21:62
  TRACK 27 AUDIO
    TITLE "0:"
    INDEX 01 00:22:70
  TRACK 28 AUDIO
    TITLE "17:cjc029_7055"
    INDEX 01 00:23:51
  TRACK 29 AUDIO
    TITLE "0:"
    INDEX 01 00:24:61
  TRACK 30 AUDIO
    TITLE "16:cjc029_7056"
    INDEX 01 00:24:67
  TRACK 31 AUDIO
    TITLE "0:"
    INDEX 01 00:25:70
  TRACK 32 AUDIO
    TITLE "17:cjc029_7057"
    INDEX 01 00:26:56
  TRACK 33 AUDIO
    TITLE "0:"
    INDEX 01 00:28:04
  TRACK 34 AUDIO
    TITLE "16:cjc029_7058"
    INDEX 01 00:28:06
  TRACK 35 AUDIO
    TITLE "0:"
    INDEX 01 00:29:36
  TRACK 36 AUDIO
    TITLE "17:cjc029_7059"
    INDEX 01 00:30:20
  TRACK 37 AUDIO
    TITLE "0:"
    INDEX 01 00:31:67
  TRACK 38 AUDIO
    TITLE "16:cjc029_7060"
    INDEX 01 00:31:69
  TRACK 39 AUDIO
    TITLE "0:"
    INDEX 01 00:33:15
  TRACK 40 AUDIO
    TITLE "17:cjc029_7061"
    INDEX 01 00:33:71
  TRACK 41 AUDIO
    TITLE "0:"
    INDEX 01 00:37:07
  TRACK 42 AUDIO
    TITLE "16:cjc029_7062"
    INDEX 01 00:37:10
  TRACK 43 AUDIO
    TITLE "0:"
    INDEX 01 00:38:37
  TRACK 44 AUDIO
    TITLE "17:cjc029_7063"
    INDEX 01 00:39:19
  TRACK 45 AUDIO
    TITLE "0:"
    INDEX 01 00:40:36
  TRACK 46 AUDIO
    TITLE "16:cjc029_7064"
    INDEX 01 00:40:44
  TRACK 47 AUDIO
    TITLE "0:"
    INDEX 01 00:41:69
  TRACK 48 AUDIO
    TITLE "17:cjc029_7065"
    INDEX 01 00:42:53
  TRACK 49 AUDIO
    TITLE "0:"
    INDEX 01 00:43:66
  TRACK 50 AUDIO
    TITLE "16:cjc029_7066"
    INDEX 01 00:43:70
  TRACK 51 AUDIO
    TITLE "0:"
    INDEX 01 00:45:18
  TRACK 52 AUDIO
    TITLE "17:cjc029_7067"
    INDEX 01 00:46:06
  TRACK 53 AUDIO
    TITLE "0:"
    INDEX 01 00:47:42
  TRACK 54 AUDIO
    TITLE "16:cjc029_7068"
    INDEX 01 00:47:46
  TRACK 55 AUDIO
    TITLE "0:"
    INDEX 01 00:48:67
  TRACK 56 AUDIO
    TITLE "17:cjc029_7069"
    INDEX 01 00:49:53
  TRACK 57 AUDIO
    TITLE "0:"
    INDEX 01 00:50:64
  TRACK 58 AUDIO
    TITLE "16:cjc029_7070"
    INDEX 01 00:50:70
  TRACK 59 AUDIO
    TITLE "0:"
    INDEX 01 00:51:73
  TRACK 60 AUDIO
    TITLE "17:cjc029_7071"
    INDEX 01 00:52:57
  TRACK 61 AUDIO
    TITLE "0:"
    INDEX 01 00:54:54
  TRACK 62 AUDIO
    TITLE "16:cjc029_7072"
    INDEX 01 00:54:58
  TRACK 63 AUDIO
    TITLE "0:"
    INDEX 01 00:55:51
